<mxfile host="app.diagrams.net" modified="2021-05-19T10:16:22.173Z" agent="5.0 (Windows NT 10.0; Win64; x64) AppleWebKit/537.36 (KHTML, like Gecko) Chrome/90.0.4430.212 Safari/537.36" etag="oIIEdWaLblFXJBN2ZfRD" version="14.6.6" type="github">
  <diagram id="zCfaY3CkYiPSzknE3AXf" name="Page-1">
    <mxGraphModel dx="3015" dy="2391" grid="1" gridSize="10" guides="1" tooltips="1" connect="1" arrows="1" fold="1" page="1" pageScale="1" pageWidth="827" pageHeight="1169" background="none" math="0" shadow="0">
      <root>
        <mxCell id="0" />
        <mxCell id="1" parent="0" />
        <mxCell id="vqirOPYOSyFeHDT5GL9a-1" value="Клиент" style="rounded=0;whiteSpace=wrap;html=1;" parent="1" vertex="1">
          <mxGeometry x="60" y="120" width="120" height="60" as="geometry" />
        </mxCell>
        <mxCell id="vqirOPYOSyFeHDT5GL9a-2" value="Квартира" style="rounded=0;whiteSpace=wrap;html=1;" parent="1" vertex="1">
          <mxGeometry x="430" y="-140" width="120" height="60" as="geometry" />
        </mxCell>
        <mxCell id="vqirOPYOSyFeHDT5GL9a-3" value="Договор" style="rounded=0;whiteSpace=wrap;html=1;" parent="1" vertex="1">
          <mxGeometry x="400" y="240" width="120" height="60" as="geometry" />
        </mxCell>
        <mxCell id="vqirOPYOSyFeHDT5GL9a-4" value="Вызов" style="rounded=0;whiteSpace=wrap;html=1;" parent="1" vertex="1">
          <mxGeometry x="-210" y="560" width="120" height="60" as="geometry" />
        </mxCell>
        <mxCell id="vqirOPYOSyFeHDT5GL9a-5" value="Продление договора" style="rounded=0;whiteSpace=wrap;html=1;" parent="1" vertex="1">
          <mxGeometry x="1025" y="-55" width="150" height="70" as="geometry" />
        </mxCell>
        <mxCell id="vqirOPYOSyFeHDT5GL9a-6" value="Сотрудник охраны" style="rounded=0;whiteSpace=wrap;html=1;" parent="1" vertex="1">
          <mxGeometry x="952.5" y="570" width="120" height="60" as="geometry" />
        </mxCell>
        <mxCell id="vqirOPYOSyFeHDT5GL9a-7" value="Сотрудник охраны Вызов" style="rounded=0;whiteSpace=wrap;html=1;" parent="1" vertex="1">
          <mxGeometry x="433.75" y="845" width="120" height="60" as="geometry" />
        </mxCell>
        <mxCell id="vqirOPYOSyFeHDT5GL9a-8" value="&lt;u&gt;Регистрационный номер&lt;/u&gt;" style="ellipse;whiteSpace=wrap;html=1;" parent="1" vertex="1">
          <mxGeometry x="-182.5" y="50" width="125" height="100" as="geometry" />
        </mxCell>
        <mxCell id="vqirOPYOSyFeHDT5GL9a-9" value="ФИО клиента" style="ellipse;whiteSpace=wrap;html=1;" parent="1" vertex="1">
          <mxGeometry x="-180" y="-60" width="120" height="80" as="geometry" />
        </mxCell>
        <mxCell id="vqirOPYOSyFeHDT5GL9a-10" value="Адрес клиента" style="ellipse;whiteSpace=wrap;html=1;" parent="1" vertex="1">
          <mxGeometry x="-180" y="190" width="120" height="80" as="geometry" />
        </mxCell>
        <mxCell id="vqirOPYOSyFeHDT5GL9a-11" value="Телефон клиента" style="ellipse;whiteSpace=wrap;html=1;" parent="1" vertex="1">
          <mxGeometry x="-180" y="300" width="120" height="80" as="geometry" />
        </mxCell>
        <mxCell id="vqirOPYOSyFeHDT5GL9a-14" value="" style="endArrow=none;html=1;exitX=0.958;exitY=0.8;exitDx=0;exitDy=0;exitPerimeter=0;" parent="1" source="vqirOPYOSyFeHDT5GL9a-9" target="vqirOPYOSyFeHDT5GL9a-1" edge="1">
          <mxGeometry width="50" height="50" relative="1" as="geometry">
            <mxPoint x="-40" y="70" as="sourcePoint" />
            <mxPoint x="10" y="20" as="targetPoint" />
          </mxGeometry>
        </mxCell>
        <mxCell id="vqirOPYOSyFeHDT5GL9a-15" value="" style="endArrow=none;html=1;exitX=0.958;exitY=0.8;exitDx=0;exitDy=0;exitPerimeter=0;entryX=0;entryY=0.25;entryDx=0;entryDy=0;" parent="1" target="vqirOPYOSyFeHDT5GL9a-1" edge="1">
          <mxGeometry width="50" height="50" relative="1" as="geometry">
            <mxPoint x="-69.99999999999997" y="130" as="sourcePoint" />
            <mxPoint x="71.37846153846161" y="256" as="targetPoint" />
          </mxGeometry>
        </mxCell>
        <mxCell id="vqirOPYOSyFeHDT5GL9a-17" value="" style="endArrow=none;html=1;entryX=0;entryY=0.75;entryDx=0;entryDy=0;" parent="1" source="vqirOPYOSyFeHDT5GL9a-10" target="vqirOPYOSyFeHDT5GL9a-1" edge="1">
          <mxGeometry width="50" height="50" relative="1" as="geometry">
            <mxPoint x="-60" y="240" as="sourcePoint" />
            <mxPoint x="-10" y="190" as="targetPoint" />
          </mxGeometry>
        </mxCell>
        <mxCell id="vqirOPYOSyFeHDT5GL9a-18" value="" style="endArrow=none;html=1;entryX=0.067;entryY=1;entryDx=0;entryDy=0;entryPerimeter=0;exitX=1;exitY=0;exitDx=0;exitDy=0;" parent="1" source="vqirOPYOSyFeHDT5GL9a-11" target="vqirOPYOSyFeHDT5GL9a-1" edge="1">
          <mxGeometry width="50" height="50" relative="1" as="geometry">
            <mxPoint x="-60" y="310" as="sourcePoint" />
            <mxPoint x="-20" y="270" as="targetPoint" />
          </mxGeometry>
        </mxCell>
        <mxCell id="vqirOPYOSyFeHDT5GL9a-19" value="Тип дома" style="ellipse;whiteSpace=wrap;html=1;" parent="1" vertex="1">
          <mxGeometry x="294" y="-380" width="120" height="80" as="geometry" />
        </mxCell>
        <mxCell id="vqirOPYOSyFeHDT5GL9a-20" value="Тип двери" style="ellipse;whiteSpace=wrap;html=1;" parent="1" vertex="1">
          <mxGeometry x="190" y="-320" width="120" height="80" as="geometry" />
        </mxCell>
        <mxCell id="vqirOPYOSyFeHDT5GL9a-21" value="Наличие кодового замка" style="ellipse;whiteSpace=wrap;html=1;" parent="1" vertex="1">
          <mxGeometry x="200" y="-230" width="120" height="80" as="geometry" />
        </mxCell>
        <mxCell id="vqirOPYOSyFeHDT5GL9a-22" value="Этаж" style="ellipse;whiteSpace=wrap;html=1;" parent="1" vertex="1">
          <mxGeometry x="610" y="-270" width="120" height="80" as="geometry" />
        </mxCell>
        <mxCell id="vqirOPYOSyFeHDT5GL9a-23" value="Количество этажей" style="ellipse;whiteSpace=wrap;html=1;" parent="1" vertex="1">
          <mxGeometry x="720" y="-200" width="120" height="80" as="geometry" />
        </mxCell>
        <mxCell id="vqirOPYOSyFeHDT5GL9a-24" value="План квартиры" style="ellipse;whiteSpace=wrap;html=1;" parent="1" vertex="1">
          <mxGeometry x="620" y="-30" width="120" height="80" as="geometry" />
        </mxCell>
        <mxCell id="vqirOPYOSyFeHDT5GL9a-25" value="" style="endArrow=none;html=1;entryX=0.5;entryY=0;entryDx=0;entryDy=0;" parent="1" source="vqirOPYOSyFeHDT5GL9a-19" target="vqirOPYOSyFeHDT5GL9a-2" edge="1">
          <mxGeometry width="50" height="50" relative="1" as="geometry">
            <mxPoint x="390" y="60" as="sourcePoint" />
            <mxPoint x="440" y="10" as="targetPoint" />
          </mxGeometry>
        </mxCell>
        <mxCell id="vqirOPYOSyFeHDT5GL9a-26" value="Наличие балкона" style="ellipse;whiteSpace=wrap;html=1;" parent="1" vertex="1">
          <mxGeometry x="450" y="-310" width="120" height="80" as="geometry" />
        </mxCell>
        <mxCell id="vqirOPYOSyFeHDT5GL9a-27" value="Тип балкона" style="ellipse;whiteSpace=wrap;html=1;" parent="1" vertex="1">
          <mxGeometry x="500" y="40" width="120" height="80" as="geometry" />
        </mxCell>
        <mxCell id="vqirOPYOSyFeHDT5GL9a-28" value="Регистрационный номер" style="ellipse;whiteSpace=wrap;html=1;" parent="1" vertex="1">
          <mxGeometry x="290" y="30" width="120" height="80" as="geometry" />
        </mxCell>
        <mxCell id="vqirOPYOSyFeHDT5GL9a-29" value="" style="endArrow=none;html=1;entryX=0;entryY=1;entryDx=0;entryDy=0;" parent="1" target="vqirOPYOSyFeHDT5GL9a-22" edge="1">
          <mxGeometry width="50" height="50" relative="1" as="geometry">
            <mxPoint x="520" y="-140" as="sourcePoint" />
            <mxPoint x="570" y="-190" as="targetPoint" />
          </mxGeometry>
        </mxCell>
        <mxCell id="vqirOPYOSyFeHDT5GL9a-30" value="" style="endArrow=none;html=1;exitX=1;exitY=0.5;exitDx=0;exitDy=0;entryX=0.183;entryY=0;entryDx=0;entryDy=0;entryPerimeter=0;" parent="1" source="vqirOPYOSyFeHDT5GL9a-20" target="vqirOPYOSyFeHDT5GL9a-2" edge="1">
          <mxGeometry width="50" height="50" relative="1" as="geometry">
            <mxPoint x="390" y="50" as="sourcePoint" />
            <mxPoint x="440" as="targetPoint" />
          </mxGeometry>
        </mxCell>
        <mxCell id="vqirOPYOSyFeHDT5GL9a-31" value="" style="endArrow=none;html=1;exitX=1;exitY=0.5;exitDx=0;exitDy=0;entryX=0;entryY=0.25;entryDx=0;entryDy=0;" parent="1" source="vqirOPYOSyFeHDT5GL9a-21" target="vqirOPYOSyFeHDT5GL9a-2" edge="1">
          <mxGeometry width="50" height="50" relative="1" as="geometry">
            <mxPoint x="390" y="50" as="sourcePoint" />
            <mxPoint x="440" as="targetPoint" />
          </mxGeometry>
        </mxCell>
        <mxCell id="vqirOPYOSyFeHDT5GL9a-32" value="" style="endArrow=none;html=1;exitX=0.642;exitY=0.013;exitDx=0;exitDy=0;exitPerimeter=0;" parent="1" source="vqirOPYOSyFeHDT5GL9a-28" target="vqirOPYOSyFeHDT5GL9a-2" edge="1">
          <mxGeometry width="50" height="50" relative="1" as="geometry">
            <mxPoint x="390" y="50" as="sourcePoint" />
            <mxPoint x="440" as="targetPoint" />
          </mxGeometry>
        </mxCell>
        <mxCell id="vqirOPYOSyFeHDT5GL9a-33" value="" style="endArrow=none;html=1;entryX=1;entryY=0.25;entryDx=0;entryDy=0;" parent="1" source="vqirOPYOSyFeHDT5GL9a-23" target="vqirOPYOSyFeHDT5GL9a-2" edge="1">
          <mxGeometry width="50" height="50" relative="1" as="geometry">
            <mxPoint x="390" y="50" as="sourcePoint" />
            <mxPoint x="440" as="targetPoint" />
          </mxGeometry>
        </mxCell>
        <mxCell id="vqirOPYOSyFeHDT5GL9a-34" value="" style="endArrow=none;html=1;entryX=0;entryY=0;entryDx=0;entryDy=0;" parent="1" source="vqirOPYOSyFeHDT5GL9a-2" target="vqirOPYOSyFeHDT5GL9a-24" edge="1">
          <mxGeometry width="50" height="50" relative="1" as="geometry">
            <mxPoint x="390" y="50" as="sourcePoint" />
            <mxPoint x="440" as="targetPoint" />
          </mxGeometry>
        </mxCell>
        <mxCell id="vqirOPYOSyFeHDT5GL9a-35" value="" style="endArrow=none;html=1;entryX=0.5;entryY=1;entryDx=0;entryDy=0;exitX=0.625;exitY=-0.017;exitDx=0;exitDy=0;exitPerimeter=0;" parent="1" source="vqirOPYOSyFeHDT5GL9a-2" target="vqirOPYOSyFeHDT5GL9a-26" edge="1">
          <mxGeometry width="50" height="50" relative="1" as="geometry">
            <mxPoint x="390" y="150" as="sourcePoint" />
            <mxPoint x="440" y="100" as="targetPoint" />
          </mxGeometry>
        </mxCell>
        <mxCell id="vqirOPYOSyFeHDT5GL9a-36" value="" style="endArrow=none;html=1;entryX=0.5;entryY=0;entryDx=0;entryDy=0;exitX=0.5;exitY=1;exitDx=0;exitDy=0;" parent="1" source="vqirOPYOSyFeHDT5GL9a-2" target="vqirOPYOSyFeHDT5GL9a-27" edge="1">
          <mxGeometry width="50" height="50" relative="1" as="geometry">
            <mxPoint x="390" y="50" as="sourcePoint" />
            <mxPoint x="440" as="targetPoint" />
          </mxGeometry>
        </mxCell>
        <mxCell id="vqirOPYOSyFeHDT5GL9a-37" value="&lt;u&gt;Регистрационный номер договора&lt;/u&gt;" style="ellipse;whiteSpace=wrap;html=1;" parent="1" vertex="1">
          <mxGeometry x="890" y="50" width="120" height="80" as="geometry" />
        </mxCell>
        <mxCell id="vqirOPYOSyFeHDT5GL9a-38" value="&lt;u&gt;Начало действия&lt;/u&gt;" style="ellipse;whiteSpace=wrap;html=1;" parent="1" vertex="1">
          <mxGeometry x="1055" y="50" width="120" height="80" as="geometry" />
        </mxCell>
        <mxCell id="vqirOPYOSyFeHDT5GL9a-39" value="Окончание действия" style="ellipse;whiteSpace=wrap;html=1;" parent="1" vertex="1">
          <mxGeometry x="1217" y="50" width="129" height="80" as="geometry" />
        </mxCell>
        <mxCell id="vqirOPYOSyFeHDT5GL9a-40" value="" style="endArrow=none;html=1;entryX=0;entryY=0.75;entryDx=0;entryDy=0;" parent="1" target="vqirOPYOSyFeHDT5GL9a-5" edge="1">
          <mxGeometry width="50" height="50" relative="1" as="geometry">
            <mxPoint x="960" y="50" as="sourcePoint" />
            <mxPoint x="1010" as="targetPoint" />
          </mxGeometry>
        </mxCell>
        <mxCell id="vqirOPYOSyFeHDT5GL9a-41" value="" style="endArrow=none;html=1;" parent="1" source="vqirOPYOSyFeHDT5GL9a-38" target="vqirOPYOSyFeHDT5GL9a-5" edge="1">
          <mxGeometry width="50" height="50" relative="1" as="geometry">
            <mxPoint x="955" y="20" as="sourcePoint" />
            <mxPoint x="1005" y="-30" as="targetPoint" />
          </mxGeometry>
        </mxCell>
        <mxCell id="vqirOPYOSyFeHDT5GL9a-42" value="" style="endArrow=none;html=1;entryX=1;entryY=1;entryDx=0;entryDy=0;" parent="1" source="vqirOPYOSyFeHDT5GL9a-39" target="vqirOPYOSyFeHDT5GL9a-5" edge="1">
          <mxGeometry width="50" height="50" relative="1" as="geometry">
            <mxPoint x="955" y="20" as="sourcePoint" />
            <mxPoint x="1005" y="-30" as="targetPoint" />
          </mxGeometry>
        </mxCell>
        <mxCell id="vqirOPYOSyFeHDT5GL9a-43" value="&lt;u&gt;Регистрационный номер договора&lt;/u&gt;" style="ellipse;whiteSpace=wrap;html=1;" parent="1" vertex="1">
          <mxGeometry x="180" y="180" width="120" height="80" as="geometry" />
        </mxCell>
        <mxCell id="vqirOPYOSyFeHDT5GL9a-44" value="Начало действия договора" style="ellipse;whiteSpace=wrap;html=1;" parent="1" vertex="1">
          <mxGeometry x="70" y="260" width="120" height="80" as="geometry" />
        </mxCell>
        <mxCell id="vqirOPYOSyFeHDT5GL9a-45" value="Окончание действия договора" style="ellipse;whiteSpace=wrap;html=1;" parent="1" vertex="1">
          <mxGeometry x="160" y="430" width="120" height="80" as="geometry" />
        </mxCell>
        <mxCell id="vqirOPYOSyFeHDT5GL9a-46" value="Компенсация" style="ellipse;whiteSpace=wrap;html=1;" parent="1" vertex="1">
          <mxGeometry x="280" y="490" width="120" height="80" as="geometry" />
        </mxCell>
        <mxCell id="vqirOPYOSyFeHDT5GL9a-47" value="Продление срока договора" style="ellipse;whiteSpace=wrap;html=1;" parent="1" vertex="1">
          <mxGeometry x="550" y="490" width="120" height="80" as="geometry" />
        </mxCell>
        <mxCell id="vqirOPYOSyFeHDT5GL9a-48" value="Дополнительные условия" style="ellipse;whiteSpace=wrap;html=1;" parent="1" vertex="1">
          <mxGeometry x="570" y="230" width="120" height="80" as="geometry" />
        </mxCell>
        <mxCell id="vqirOPYOSyFeHDT5GL9a-49" value="Адрес квартиры" style="ellipse;whiteSpace=wrap;html=1;" parent="1" vertex="1">
          <mxGeometry x="630" y="390" width="120" height="80" as="geometry" />
        </mxCell>
        <mxCell id="vqirOPYOSyFeHDT5GL9a-50" value="Стоимость ежемесячной оплаты" style="ellipse;whiteSpace=wrap;html=1;" parent="1" vertex="1">
          <mxGeometry x="414" y="430" width="120" height="80" as="geometry" />
        </mxCell>
        <mxCell id="vqirOPYOSyFeHDT5GL9a-51" value="&lt;u&gt;Адрес квартиры&lt;/u&gt;" style="ellipse;whiteSpace=wrap;html=1;" parent="1" vertex="1">
          <mxGeometry x="730" y="-100" width="120" height="80" as="geometry" />
        </mxCell>
        <mxCell id="vqirOPYOSyFeHDT5GL9a-52" value="" style="endArrow=none;html=1;exitX=1;exitY=0.75;exitDx=0;exitDy=0;" parent="1" source="vqirOPYOSyFeHDT5GL9a-2" target="vqirOPYOSyFeHDT5GL9a-51" edge="1">
          <mxGeometry width="50" height="50" relative="1" as="geometry">
            <mxPoint x="650" y="110" as="sourcePoint" />
            <mxPoint x="700" y="60" as="targetPoint" />
          </mxGeometry>
        </mxCell>
        <mxCell id="vqirOPYOSyFeHDT5GL9a-53" value="" style="endArrow=none;html=1;entryX=0;entryY=0.25;entryDx=0;entryDy=0;exitX=1;exitY=0.5;exitDx=0;exitDy=0;" parent="1" source="vqirOPYOSyFeHDT5GL9a-43" target="vqirOPYOSyFeHDT5GL9a-3" edge="1">
          <mxGeometry width="50" height="50" relative="1" as="geometry">
            <mxPoint x="285" y="380" as="sourcePoint" />
            <mxPoint x="335" y="330" as="targetPoint" />
          </mxGeometry>
        </mxCell>
        <mxCell id="vqirOPYOSyFeHDT5GL9a-54" value="" style="endArrow=none;html=1;entryX=0;entryY=0.75;entryDx=0;entryDy=0;exitX=1;exitY=0.5;exitDx=0;exitDy=0;" parent="1" source="vqirOPYOSyFeHDT5GL9a-44" target="vqirOPYOSyFeHDT5GL9a-3" edge="1">
          <mxGeometry width="50" height="50" relative="1" as="geometry">
            <mxPoint x="285" y="490" as="sourcePoint" />
            <mxPoint x="335" y="440" as="targetPoint" />
          </mxGeometry>
        </mxCell>
        <mxCell id="vqirOPYOSyFeHDT5GL9a-55" value="" style="endArrow=none;html=1;exitX=0.758;exitY=0.075;exitDx=0;exitDy=0;exitPerimeter=0;" parent="1" source="vqirOPYOSyFeHDT5GL9a-45" target="vqirOPYOSyFeHDT5GL9a-3" edge="1">
          <mxGeometry width="50" height="50" relative="1" as="geometry">
            <mxPoint x="310" y="580" as="sourcePoint" />
            <mxPoint x="360" y="530" as="targetPoint" />
          </mxGeometry>
        </mxCell>
        <mxCell id="vqirOPYOSyFeHDT5GL9a-57" value="" style="endArrow=none;html=1;exitX=1;exitY=0.5;exitDx=0;exitDy=0;entryX=0;entryY=0.5;entryDx=0;entryDy=0;" parent="1" source="vqirOPYOSyFeHDT5GL9a-3" target="vqirOPYOSyFeHDT5GL9a-48" edge="1">
          <mxGeometry width="50" height="50" relative="1" as="geometry">
            <mxPoint x="465" y="460" as="sourcePoint" />
            <mxPoint x="515" y="410" as="targetPoint" />
          </mxGeometry>
        </mxCell>
        <mxCell id="vqirOPYOSyFeHDT5GL9a-58" value="" style="endArrow=none;html=1;entryX=1;entryY=1;entryDx=0;entryDy=0;exitX=0.5;exitY=0;exitDx=0;exitDy=0;" parent="1" source="vqirOPYOSyFeHDT5GL9a-49" target="vqirOPYOSyFeHDT5GL9a-3" edge="1">
          <mxGeometry width="50" height="50" relative="1" as="geometry">
            <mxPoint x="650" y="490" as="sourcePoint" />
            <mxPoint x="700" y="440" as="targetPoint" />
          </mxGeometry>
        </mxCell>
        <mxCell id="vqirOPYOSyFeHDT5GL9a-59" value="" style="endArrow=none;html=1;exitX=0.5;exitY=0;exitDx=0;exitDy=0;entryX=0.75;entryY=1;entryDx=0;entryDy=0;" parent="1" source="vqirOPYOSyFeHDT5GL9a-47" target="vqirOPYOSyFeHDT5GL9a-3" edge="1">
          <mxGeometry width="50" height="50" relative="1" as="geometry">
            <mxPoint x="650" y="490" as="sourcePoint" />
            <mxPoint x="700" y="440" as="targetPoint" />
          </mxGeometry>
        </mxCell>
        <mxCell id="vqirOPYOSyFeHDT5GL9a-60" value="" style="endArrow=none;html=1;entryX=0.5;entryY=1;entryDx=0;entryDy=0;" parent="1" source="vqirOPYOSyFeHDT5GL9a-50" target="vqirOPYOSyFeHDT5GL9a-3" edge="1">
          <mxGeometry width="50" height="50" relative="1" as="geometry">
            <mxPoint x="650" y="490" as="sourcePoint" />
            <mxPoint x="700" y="440" as="targetPoint" />
          </mxGeometry>
        </mxCell>
        <mxCell id="vqirOPYOSyFeHDT5GL9a-61" value="" style="endArrow=none;html=1;exitX=0.5;exitY=0;exitDx=0;exitDy=0;" parent="1" source="vqirOPYOSyFeHDT5GL9a-46" target="vqirOPYOSyFeHDT5GL9a-3" edge="1">
          <mxGeometry width="50" height="50" relative="1" as="geometry">
            <mxPoint x="650" y="490" as="sourcePoint" />
            <mxPoint x="700" y="440" as="targetPoint" />
          </mxGeometry>
        </mxCell>
        <mxCell id="vqirOPYOSyFeHDT5GL9a-62" value="&lt;u&gt;Номер выезда&lt;/u&gt;" style="ellipse;whiteSpace=wrap;html=1;" parent="1" vertex="1">
          <mxGeometry x="-330" y="430" width="120" height="80" as="geometry" />
        </mxCell>
        <mxCell id="vqirOPYOSyFeHDT5GL9a-63" value="Дата Время выезда" style="ellipse;whiteSpace=wrap;html=1;" parent="1" vertex="1">
          <mxGeometry x="-411.5" y="550" width="123" height="80" as="geometry" />
        </mxCell>
        <mxCell id="vqirOPYOSyFeHDT5GL9a-64" value="Марка автомобиля" style="ellipse;whiteSpace=wrap;html=1;" parent="1" vertex="1">
          <mxGeometry x="-413" y="650" width="120" height="80" as="geometry" />
        </mxCell>
        <mxCell id="vqirOPYOSyFeHDT5GL9a-65" value="Вызов ложный" style="ellipse;whiteSpace=wrap;html=1;" parent="1" vertex="1">
          <mxGeometry x="-330" y="750" width="120" height="80" as="geometry" />
        </mxCell>
        <mxCell id="vqirOPYOSyFeHDT5GL9a-66" value="Величина штрафа" style="ellipse;whiteSpace=wrap;html=1;" parent="1" vertex="1">
          <mxGeometry x="-120" y="420" width="120" height="80" as="geometry" />
        </mxCell>
        <mxCell id="vqirOPYOSyFeHDT5GL9a-68" value="Табельный номер" style="ellipse;whiteSpace=wrap;html=1;" parent="1" vertex="1">
          <mxGeometry x="-20" y="770" width="120" height="80" as="geometry" />
        </mxCell>
        <mxCell id="vqirOPYOSyFeHDT5GL9a-69" value="Регистрационный номер договора" style="ellipse;whiteSpace=wrap;html=1;" parent="1" vertex="1">
          <mxGeometry x="-182.5" y="740" width="120" height="80" as="geometry" />
        </mxCell>
        <mxCell id="vqirOPYOSyFeHDT5GL9a-71" value="" style="endArrow=none;html=1;exitX=1;exitY=1;exitDx=0;exitDy=0;entryX=0.25;entryY=0;entryDx=0;entryDy=0;" parent="1" source="vqirOPYOSyFeHDT5GL9a-62" target="vqirOPYOSyFeHDT5GL9a-4" edge="1">
          <mxGeometry width="50" height="50" relative="1" as="geometry">
            <mxPoint x="-165" y="535" as="sourcePoint" />
            <mxPoint x="-115" y="485" as="targetPoint" />
          </mxGeometry>
        </mxCell>
        <mxCell id="vqirOPYOSyFeHDT5GL9a-72" value="" style="endArrow=none;html=1;entryX=0;entryY=0.5;entryDx=0;entryDy=0;exitX=1;exitY=0.5;exitDx=0;exitDy=0;" parent="1" source="vqirOPYOSyFeHDT5GL9a-63" target="vqirOPYOSyFeHDT5GL9a-4" edge="1">
          <mxGeometry width="50" height="50" relative="1" as="geometry">
            <mxPoint x="-290" y="590" as="sourcePoint" />
            <mxPoint x="-240" y="540" as="targetPoint" />
          </mxGeometry>
        </mxCell>
        <mxCell id="vqirOPYOSyFeHDT5GL9a-73" value="" style="endArrow=none;html=1;entryX=0;entryY=1;entryDx=0;entryDy=0;exitX=1;exitY=0;exitDx=0;exitDy=0;" parent="1" source="vqirOPYOSyFeHDT5GL9a-64" target="vqirOPYOSyFeHDT5GL9a-4" edge="1">
          <mxGeometry width="50" height="50" relative="1" as="geometry">
            <mxPoint x="-300" y="690" as="sourcePoint" />
            <mxPoint x="-250" y="640" as="targetPoint" />
          </mxGeometry>
        </mxCell>
        <mxCell id="vqirOPYOSyFeHDT5GL9a-74" value="" style="endArrow=none;html=1;entryX=0.25;entryY=1;entryDx=0;entryDy=0;exitX=0.658;exitY=0;exitDx=0;exitDy=0;exitPerimeter=0;" parent="1" source="vqirOPYOSyFeHDT5GL9a-65" target="vqirOPYOSyFeHDT5GL9a-4" edge="1">
          <mxGeometry width="50" height="50" relative="1" as="geometry">
            <mxPoint x="-270" y="760" as="sourcePoint" />
            <mxPoint x="-220" y="710" as="targetPoint" />
          </mxGeometry>
        </mxCell>
        <mxCell id="vqirOPYOSyFeHDT5GL9a-75" value="" style="endArrow=none;html=1;entryX=0;entryY=1;entryDx=0;entryDy=0;exitX=0.5;exitY=0;exitDx=0;exitDy=0;" parent="1" source="vqirOPYOSyFeHDT5GL9a-4" target="vqirOPYOSyFeHDT5GL9a-66" edge="1">
          <mxGeometry width="50" height="50" relative="1" as="geometry">
            <mxPoint x="-165" y="570" as="sourcePoint" />
            <mxPoint x="-115" y="520" as="targetPoint" />
          </mxGeometry>
        </mxCell>
        <mxCell id="vqirOPYOSyFeHDT5GL9a-76" value="" style="endArrow=none;html=1;entryX=0.5;entryY=1;entryDx=0;entryDy=0;exitX=0.5;exitY=0;exitDx=0;exitDy=0;" parent="1" source="vqirOPYOSyFeHDT5GL9a-69" target="vqirOPYOSyFeHDT5GL9a-4" edge="1">
          <mxGeometry width="50" height="50" relative="1" as="geometry">
            <mxPoint x="-160" y="720" as="sourcePoint" />
            <mxPoint x="-110" y="670" as="targetPoint" />
          </mxGeometry>
        </mxCell>
        <mxCell id="vqirOPYOSyFeHDT5GL9a-77" value="" style="endArrow=none;html=1;entryX=0.75;entryY=1;entryDx=0;entryDy=0;exitX=0;exitY=0;exitDx=0;exitDy=0;" parent="1" source="vqirOPYOSyFeHDT5GL9a-68" target="vqirOPYOSyFeHDT5GL9a-4" edge="1">
          <mxGeometry width="50" height="50" relative="1" as="geometry">
            <mxPoint x="-70" y="700" as="sourcePoint" />
            <mxPoint x="-20" y="650" as="targetPoint" />
          </mxGeometry>
        </mxCell>
        <mxCell id="vqirOPYOSyFeHDT5GL9a-79" value="&lt;u&gt;Табельный номер&lt;/u&gt;" style="ellipse;whiteSpace=wrap;html=1;" parent="1" vertex="1">
          <mxGeometry x="952.5" y="690" width="120" height="80" as="geometry" />
        </mxCell>
        <mxCell id="vqirOPYOSyFeHDT5GL9a-80" value="ФИО сотрудника" style="ellipse;whiteSpace=wrap;html=1;" parent="1" vertex="1">
          <mxGeometry x="780" y="500" width="120" height="80" as="geometry" />
        </mxCell>
        <mxCell id="vqirOPYOSyFeHDT5GL9a-81" value="Контактный номер" style="ellipse;whiteSpace=wrap;html=1;" parent="1" vertex="1">
          <mxGeometry x="1142.5" y="520" width="120" height="80" as="geometry" />
        </mxCell>
        <mxCell id="vqirOPYOSyFeHDT5GL9a-82" value="" style="endArrow=none;html=1;entryX=0.5;entryY=1;entryDx=0;entryDy=0;exitX=0.5;exitY=0;exitDx=0;exitDy=0;" parent="1" source="vqirOPYOSyFeHDT5GL9a-79" target="vqirOPYOSyFeHDT5GL9a-6" edge="1">
          <mxGeometry width="50" height="50" relative="1" as="geometry">
            <mxPoint x="1007.5" y="670" as="sourcePoint" />
            <mxPoint x="1057.5" y="620" as="targetPoint" />
          </mxGeometry>
        </mxCell>
        <mxCell id="vqirOPYOSyFeHDT5GL9a-83" value="" style="endArrow=none;html=1;entryX=0;entryY=0.5;entryDx=0;entryDy=0;exitX=1.004;exitY=0.6;exitDx=0;exitDy=0;exitPerimeter=0;" parent="1" source="vqirOPYOSyFeHDT5GL9a-80" target="vqirOPYOSyFeHDT5GL9a-6" edge="1">
          <mxGeometry width="50" height="50" relative="1" as="geometry">
            <mxPoint x="914.5" y="620" as="sourcePoint" />
            <mxPoint x="942.5" y="545" as="targetPoint" />
          </mxGeometry>
        </mxCell>
        <mxCell id="vqirOPYOSyFeHDT5GL9a-84" value="" style="endArrow=none;html=1;exitX=1;exitY=0.5;exitDx=0;exitDy=0;" parent="1" source="vqirOPYOSyFeHDT5GL9a-6" target="vqirOPYOSyFeHDT5GL9a-81" edge="1">
          <mxGeometry width="50" height="50" relative="1" as="geometry">
            <mxPoint x="1072.5" y="600" as="sourcePoint" />
            <mxPoint x="1122.5" y="550" as="targetPoint" />
          </mxGeometry>
        </mxCell>
        <mxCell id="vqirOPYOSyFeHDT5GL9a-85" value="&lt;u&gt;Табельный номер&lt;/u&gt;" style="ellipse;whiteSpace=wrap;html=1;" parent="1" vertex="1">
          <mxGeometry x="263.75" y="945" width="120" height="80" as="geometry" />
        </mxCell>
        <mxCell id="vqirOPYOSyFeHDT5GL9a-86" value="&lt;u&gt;Номер выезда&lt;/u&gt;" style="ellipse;whiteSpace=wrap;html=1;" parent="1" vertex="1">
          <mxGeometry x="433.75" y="955" width="120" height="80" as="geometry" />
        </mxCell>
        <mxCell id="vqirOPYOSyFeHDT5GL9a-87" value="Статус" style="ellipse;whiteSpace=wrap;html=1;" parent="1" vertex="1">
          <mxGeometry x="596.25" y="1000" width="120" height="80" as="geometry" />
        </mxCell>
        <mxCell id="vqirOPYOSyFeHDT5GL9a-89" value="" style="endArrow=none;html=1;entryX=0;entryY=1;entryDx=0;entryDy=0;exitX=1;exitY=0;exitDx=0;exitDy=0;" parent="1" source="vqirOPYOSyFeHDT5GL9a-85" target="vqirOPYOSyFeHDT5GL9a-7" edge="1">
          <mxGeometry width="50" height="50" relative="1" as="geometry">
            <mxPoint x="343.75" y="945" as="sourcePoint" />
            <mxPoint x="393.75" y="895" as="targetPoint" />
          </mxGeometry>
        </mxCell>
        <mxCell id="vqirOPYOSyFeHDT5GL9a-90" value="" style="endArrow=none;html=1;entryX=0.5;entryY=1;entryDx=0;entryDy=0;exitX=0.5;exitY=0;exitDx=0;exitDy=0;" parent="1" source="vqirOPYOSyFeHDT5GL9a-86" target="vqirOPYOSyFeHDT5GL9a-7" edge="1">
          <mxGeometry width="50" height="50" relative="1" as="geometry">
            <mxPoint x="488.75" y="945" as="sourcePoint" />
            <mxPoint x="538.75" y="895" as="targetPoint" />
          </mxGeometry>
        </mxCell>
        <mxCell id="vqirOPYOSyFeHDT5GL9a-91" value="" style="endArrow=none;html=1;exitX=1;exitY=1;exitDx=0;exitDy=0;" parent="1" source="vqirOPYOSyFeHDT5GL9a-7" target="vqirOPYOSyFeHDT5GL9a-87" edge="1">
          <mxGeometry width="50" height="50" relative="1" as="geometry">
            <mxPoint x="523.75" y="835" as="sourcePoint" />
            <mxPoint x="573.75" y="785" as="targetPoint" />
          </mxGeometry>
        </mxCell>
        <mxCell id="vqirOPYOSyFeHDT5GL9a-92" value="" style="endArrow=none;html=1;entryX=0;entryY=0.75;entryDx=0;entryDy=0;exitX=0.7;exitY=-0.017;exitDx=0;exitDy=0;exitPerimeter=0;" parent="1" source="vqirOPYOSyFeHDT5GL9a-1" target="vqirOPYOSyFeHDT5GL9a-2" edge="1">
          <mxGeometry width="50" height="50" relative="1" as="geometry">
            <mxPoint x="130" y="115" as="sourcePoint" />
            <mxPoint x="180" y="65" as="targetPoint" />
          </mxGeometry>
        </mxCell>
        <mxCell id="vqirOPYOSyFeHDT5GL9a-93" value="" style="endArrow=none;html=1;" parent="1" edge="1">
          <mxGeometry width="50" height="50" relative="1" as="geometry">
            <mxPoint x="150" y="110" as="sourcePoint" />
            <mxPoint x="160" y="120" as="targetPoint" />
          </mxGeometry>
        </mxCell>
        <mxCell id="vqirOPYOSyFeHDT5GL9a-95" value="" style="endArrow=none;html=1;" parent="1" edge="1">
          <mxGeometry width="50" height="50" relative="1" as="geometry">
            <mxPoint x="420" y="-80" as="sourcePoint" />
            <mxPoint x="410" y="-90" as="targetPoint" />
          </mxGeometry>
        </mxCell>
        <mxCell id="vqirOPYOSyFeHDT5GL9a-96" value="" style="endArrow=none;html=1;exitX=0.75;exitY=0;exitDx=0;exitDy=0;entryX=0;entryY=0.25;entryDx=0;entryDy=0;" parent="1" source="vqirOPYOSyFeHDT5GL9a-3" target="vqirOPYOSyFeHDT5GL9a-5" edge="1">
          <mxGeometry width="50" height="50" relative="1" as="geometry">
            <mxPoint x="500" y="230" as="sourcePoint" />
            <mxPoint x="670" y="160" as="targetPoint" />
          </mxGeometry>
        </mxCell>
        <mxCell id="vqirOPYOSyFeHDT5GL9a-97" value="" style="endArrow=none;html=1;" parent="1" edge="1">
          <mxGeometry width="50" height="50" relative="1" as="geometry">
            <mxPoint x="1010" y="-20" as="sourcePoint" />
            <mxPoint x="1000" y="-30" as="targetPoint" />
          </mxGeometry>
        </mxCell>
        <mxCell id="vqirOPYOSyFeHDT5GL9a-98" value="" style="endArrow=none;html=1;" parent="1" edge="1">
          <mxGeometry width="50" height="50" relative="1" as="geometry">
            <mxPoint x="520" y="220" as="sourcePoint" />
            <mxPoint x="530" y="230" as="targetPoint" />
          </mxGeometry>
        </mxCell>
        <mxCell id="vqirOPYOSyFeHDT5GL9a-99" value="" style="endArrow=none;html=1;exitX=0.5;exitY=0;exitDx=0;exitDy=0;entryX=0.25;entryY=1;entryDx=0;entryDy=0;" parent="1" source="vqirOPYOSyFeHDT5GL9a-7" target="vqirOPYOSyFeHDT5GL9a-6" edge="1">
          <mxGeometry width="50" height="50" relative="1" as="geometry">
            <mxPoint x="650" y="290" as="sourcePoint" />
            <mxPoint x="700" y="240" as="targetPoint" />
          </mxGeometry>
        </mxCell>
        <mxCell id="vqirOPYOSyFeHDT5GL9a-100" value="" style="endArrow=none;html=1;" parent="1" edge="1">
          <mxGeometry width="50" height="50" relative="1" as="geometry">
            <mxPoint x="970" y="650" as="sourcePoint" />
            <mxPoint x="940" y="640" as="targetPoint" />
          </mxGeometry>
        </mxCell>
        <mxCell id="vqirOPYOSyFeHDT5GL9a-101" value="" style="endArrow=none;html=1;" parent="1" edge="1">
          <mxGeometry width="50" height="50" relative="1" as="geometry">
            <mxPoint x="530" y="840" as="sourcePoint" />
            <mxPoint x="510" y="830" as="targetPoint" />
          </mxGeometry>
        </mxCell>
        <mxCell id="vqirOPYOSyFeHDT5GL9a-102" value="" style="endArrow=none;html=1;exitX=0.5;exitY=0;exitDx=0;exitDy=0;" parent="1" source="vqirOPYOSyFeHDT5GL9a-3" edge="1">
          <mxGeometry width="50" height="50" relative="1" as="geometry">
            <mxPoint x="670" y="190" as="sourcePoint" />
            <mxPoint x="482" y="-81" as="targetPoint" />
          </mxGeometry>
        </mxCell>
        <mxCell id="vqirOPYOSyFeHDT5GL9a-103" value="" style="endArrow=none;html=1;" parent="1" edge="1">
          <mxGeometry width="50" height="50" relative="1" as="geometry">
            <mxPoint x="450" y="230" as="sourcePoint" />
            <mxPoint x="470" y="230" as="targetPoint" />
          </mxGeometry>
        </mxCell>
        <mxCell id="vqirOPYOSyFeHDT5GL9a-104" value="" style="endArrow=none;html=1;" parent="1" edge="1">
          <mxGeometry width="50" height="50" relative="1" as="geometry">
            <mxPoint x="470" y="-70" as="sourcePoint" />
            <mxPoint x="490" y="-70" as="targetPoint" />
          </mxGeometry>
        </mxCell>
        <mxCell id="vqirOPYOSyFeHDT5GL9a-105" value="" style="endArrow=none;html=1;exitX=1;exitY=0;exitDx=0;exitDy=0;entryX=0;entryY=1;entryDx=0;entryDy=0;" parent="1" source="vqirOPYOSyFeHDT5GL9a-4" target="vqirOPYOSyFeHDT5GL9a-3" edge="1">
          <mxGeometry width="50" height="50" relative="1" as="geometry">
            <mxPoint x="260" y="390" as="sourcePoint" />
            <mxPoint x="310" y="340" as="targetPoint" />
          </mxGeometry>
        </mxCell>
        <mxCell id="vqirOPYOSyFeHDT5GL9a-106" value="" style="endArrow=none;html=1;startArrow=none;" parent="1" source="vqirOPYOSyFeHDT5GL9a-121" edge="1">
          <mxGeometry width="50" height="50" relative="1" as="geometry">
            <mxPoint x="-60" y="560" as="sourcePoint" />
            <mxPoint x="-80" y="540" as="targetPoint" />
          </mxGeometry>
        </mxCell>
        <mxCell id="vqirOPYOSyFeHDT5GL9a-107" value="" style="endArrow=none;html=1;" parent="1" edge="1">
          <mxGeometry width="50" height="50" relative="1" as="geometry">
            <mxPoint x="380" y="320" as="sourcePoint" />
            <mxPoint x="360" y="310" as="targetPoint" />
          </mxGeometry>
        </mxCell>
        <mxCell id="vqirOPYOSyFeHDT5GL9a-108" value="" style="endArrow=none;html=1;exitX=0;exitY=0.5;exitDx=0;exitDy=0;entryX=1;entryY=1;entryDx=0;entryDy=0;" parent="1" source="vqirOPYOSyFeHDT5GL9a-7" target="vqirOPYOSyFeHDT5GL9a-4" edge="1">
          <mxGeometry width="50" height="50" relative="1" as="geometry">
            <mxPoint x="350" y="590" as="sourcePoint" />
            <mxPoint x="400" y="540" as="targetPoint" />
          </mxGeometry>
        </mxCell>
        <mxCell id="vqirOPYOSyFeHDT5GL9a-109" value="" style="endArrow=none;html=1;" parent="1" edge="1">
          <mxGeometry width="50" height="50" relative="1" as="geometry">
            <mxPoint x="-80" y="640" as="sourcePoint" />
            <mxPoint x="-70" y="620" as="targetPoint" />
          </mxGeometry>
        </mxCell>
        <mxCell id="vqirOPYOSyFeHDT5GL9a-110" value="" style="endArrow=none;html=1;" parent="1" edge="1">
          <mxGeometry width="50" height="50" relative="1" as="geometry">
            <mxPoint x="410" y="880" as="sourcePoint" />
            <mxPoint x="416.25" y="860" as="targetPoint" />
          </mxGeometry>
        </mxCell>
        <mxCell id="vqirOPYOSyFeHDT5GL9a-111" value="" style="endArrow=none;html=1;exitX=1;exitY=0.75;exitDx=0;exitDy=0;entryX=0;entryY=0.75;entryDx=0;entryDy=0;" parent="1" source="vqirOPYOSyFeHDT5GL9a-4" target="vqirOPYOSyFeHDT5GL9a-6" edge="1">
          <mxGeometry width="50" height="50" relative="1" as="geometry">
            <mxPoint x="480" y="720" as="sourcePoint" />
            <mxPoint x="530" y="670" as="targetPoint" />
          </mxGeometry>
        </mxCell>
        <mxCell id="vqirOPYOSyFeHDT5GL9a-112" value="" style="endArrow=none;html=1;" parent="1" edge="1">
          <mxGeometry width="50" height="50" relative="1" as="geometry">
            <mxPoint x="920" y="630" as="sourcePoint" />
            <mxPoint x="910" y="600" as="targetPoint" />
          </mxGeometry>
        </mxCell>
        <mxCell id="vqirOPYOSyFeHDT5GL9a-113" value="" style="endArrow=none;html=1;" parent="1" edge="1">
          <mxGeometry width="50" height="50" relative="1" as="geometry">
            <mxPoint x="-60" y="620" as="sourcePoint" />
            <mxPoint x="-50" y="600" as="targetPoint" />
          </mxGeometry>
        </mxCell>
        <mxCell id="vqirOPYOSyFeHDT5GL9a-115" value="1" style="text;html=1;align=center;verticalAlign=middle;resizable=0;points=[];autosize=1;strokeColor=none;" parent="1" vertex="1">
          <mxGeometry x="170" y="100" width="20" height="20" as="geometry" />
        </mxCell>
        <mxCell id="vqirOPYOSyFeHDT5GL9a-116" value="M" style="text;html=1;align=center;verticalAlign=middle;resizable=0;points=[];autosize=1;strokeColor=none;" parent="1" vertex="1">
          <mxGeometry x="395" y="-80" width="30" height="20" as="geometry" />
        </mxCell>
        <mxCell id="vqirOPYOSyFeHDT5GL9a-117" value="1" style="text;html=1;align=center;verticalAlign=middle;resizable=0;points=[];autosize=1;strokeColor=none;" parent="1" vertex="1">
          <mxGeometry x="480" y="-70" width="20" height="20" as="geometry" />
        </mxCell>
        <mxCell id="vqirOPYOSyFeHDT5GL9a-118" value="M" style="text;html=1;align=center;verticalAlign=middle;resizable=0;points=[];autosize=1;strokeColor=none;" parent="1" vertex="1">
          <mxGeometry x="459" y="210" width="30" height="20" as="geometry" />
        </mxCell>
        <mxCell id="vqirOPYOSyFeHDT5GL9a-119" value="M" style="text;html=1;align=center;verticalAlign=middle;resizable=0;points=[];autosize=1;strokeColor=none;" parent="1" vertex="1">
          <mxGeometry x="975" y="-20" width="30" height="20" as="geometry" />
        </mxCell>
        <mxCell id="vqirOPYOSyFeHDT5GL9a-120" value="1" style="text;html=1;align=center;verticalAlign=middle;resizable=0;points=[];autosize=1;strokeColor=none;" parent="1" vertex="1">
          <mxGeometry x="520" y="230" width="20" height="20" as="geometry" />
        </mxCell>
        <mxCell id="vqirOPYOSyFeHDT5GL9a-121" value="M" style="text;html=1;align=center;verticalAlign=middle;resizable=0;points=[];autosize=1;strokeColor=none;" parent="1" vertex="1">
          <mxGeometry x="-87.5" y="560" width="30" height="20" as="geometry" />
        </mxCell>
        <mxCell id="vqirOPYOSyFeHDT5GL9a-122" value="" style="endArrow=none;html=1;" parent="1" target="vqirOPYOSyFeHDT5GL9a-121" edge="1">
          <mxGeometry width="50" height="50" relative="1" as="geometry">
            <mxPoint x="-60" y="559.9999999999995" as="sourcePoint" />
            <mxPoint x="-80" y="539.9999999999995" as="targetPoint" />
          </mxGeometry>
        </mxCell>
        <mxCell id="vqirOPYOSyFeHDT5GL9a-123" value="1" style="text;html=1;align=center;verticalAlign=middle;resizable=0;points=[];autosize=1;strokeColor=none;" parent="1" vertex="1">
          <mxGeometry x="363.75" y="290" width="20" height="20" as="geometry" />
        </mxCell>
        <mxCell id="vqirOPYOSyFeHDT5GL9a-124" value="1" style="text;html=1;align=center;verticalAlign=middle;resizable=0;points=[];autosize=1;strokeColor=none;" parent="1" vertex="1">
          <mxGeometry x="920" y="590" width="20" height="20" as="geometry" />
        </mxCell>
        <mxCell id="vqirOPYOSyFeHDT5GL9a-125" value="M" style="text;html=1;align=center;verticalAlign=middle;resizable=0;points=[];autosize=1;strokeColor=none;" parent="1" vertex="1">
          <mxGeometry x="-55" y="610" width="30" height="20" as="geometry" />
        </mxCell>
        <mxCell id="vqirOPYOSyFeHDT5GL9a-127" value="M" style="text;html=1;align=center;verticalAlign=middle;resizable=0;points=[];autosize=1;strokeColor=none;" parent="1" vertex="1">
          <mxGeometry x="403.75" y="870" width="30" height="20" as="geometry" />
        </mxCell>
        <mxCell id="vqirOPYOSyFeHDT5GL9a-128" value="1" style="text;html=1;align=center;verticalAlign=middle;resizable=0;points=[];autosize=1;strokeColor=none;" parent="1" vertex="1">
          <mxGeometry x="-82.5" y="640" width="20" height="20" as="geometry" />
        </mxCell>
        <mxCell id="vqirOPYOSyFeHDT5GL9a-129" value="1" style="text;html=1;align=center;verticalAlign=middle;resizable=0;points=[];autosize=1;strokeColor=none;" parent="1" vertex="1">
          <mxGeometry x="950" y="650" width="20" height="20" as="geometry" />
        </mxCell>
        <mxCell id="vqirOPYOSyFeHDT5GL9a-130" value="M" style="text;html=1;align=center;verticalAlign=middle;resizable=0;points=[];autosize=1;strokeColor=none;" parent="1" vertex="1">
          <mxGeometry x="534" y="825" width="30" height="20" as="geometry" />
        </mxCell>
      </root>
    </mxGraphModel>
  </diagram>
</mxfile>
